<?xml version="1.0" standalone="no"?>
<!DOCTYPE svg PUBLIC "-//W3C//DTD SVG 20010904//EN"
 "http://www.w3.org/TR/2001/REC-SVG-20010904/DTD/svg10.dtd">
<svg version="1.0" xmlns="http://www.w3.org/2000/svg"
 width="500.000000pt" height="500.000000pt" viewBox="0 0 500.000000 500.000000"
 preserveAspectRatio="xMidYMid meet">
<metadata>
Created by potrace 1.16, written by Peter Selinger 2001-2019
</metadata>
<g transform="translate(0.000000,500.000000) scale(0.100000,-0.100000)"
fill="#000000" stroke="none">
<path d="M3009 3810 c-37 -35 -46 -108 -19 -143 25 -31 26 -89 3 -128 -14 -23
-24 -29 -52 -29 -35 0 -35 0 -13 16 23 16 31 67 13 79 -5 3 -12 18 -16 34 -8
38 -40 51 -96 39 -24 -5 -70 -13 -102 -17 -65 -8 -85 -23 -97 -75 -6 -29 -4
-41 13 -62 l20 -27 -22 13 c-35 18 -50 -4 -56 -79 -2 -35 -6 -65 -8 -68 -2 -2
-10 17 -17 41 -7 25 -20 52 -30 61 -16 15 -19 13 -34 -25 -9 -22 -16 -51 -16
-65 l0 -25 -42 30 -43 29 -3 -26 c-4 -30 23 -63 52 -64 19 -1 19 -1 -2 -8
l-24 -6 27 -25 c14 -13 38 -25 53 -26 15 -1 26 -7 24 -13 -1 -6 4 -11 12 -11
18 0 36 -51 36 -100 0 -47 11 -58 25 -24 10 25 10 24 11 -15 2 -73 55 -108
119 -79 28 13 30 19 13 36 -9 9 -6 12 15 12 l27 0 0 -95 0 -95 -259 0 -260 0
0 140 c-1 116 2 142 14 146 8 4 22 21 31 40 15 31 15 37 0 68 -9 19 -23 36
-31 40 -25 9 -18 55 14 86 21 21 42 31 80 36 116 15 36 24 -219 24 -255 0
-335 -9 -219 -24 38 -5 59 -15 80 -36 37 -36 37 -60 -1 -100 -32 -34 -40 -77
-15 -86 26 -10 17 -24 -15 -24 -51 0 -77 -24 -74 -68 1 -20 2 -47 3 -59 1 -13
7 -23 16 -23 9 0 38 -12 65 -26 l50 -26 -1 -117 c-1 -74 -4 -103 -8 -81 -4 19
-16 52 -28 74 l-20 38 -20 -34 c-28 -48 -36 -84 -35 -155 l2 -62 -47 29 c-26
17 -55 30 -64 30 -10 0 -21 5 -24 10 -7 12 -55 13 -73 2 -10 -7 -8 -15 8 -35
21 -26 21 -27 2 -27 -42 0 -42 -24 0 -59 44 -37 125 -69 201 -78 36 -4 47 -10
47 -24 0 -9 3 -24 6 -33 5 -13 -2 -16 -42 -16 -67 0 -114 -29 -114 -70 0 -42
36 -108 65 -122 30 -14 32 -28 5 -28 -11 0 -20 -4 -20 -10 0 -5 5 -10 10 -10
6 0 10 -19 11 -42 1 -58 21 -129 39 -141 21 -12 87 6 134 38 30 20 38 22 42
10 3 -8 26 -28 52 -45 34 -23 57 -30 93 -30 55 0 59 6 59 91 0 95 34 73 46
-30 8 -71 38 -115 86 -127 23 -5 28 -2 34 20 3 14 2 39 -4 54 l-10 29 49 -18
c27 -11 49 -15 49 -10 0 17 -104 103 -150 123 -51 24 -102 63 -93 72 4 3 26 6
50 6 23 0 43 5 43 10 0 6 -12 10 -26 10 l-26 0 22 36 c25 40 22 58 -4 20 -26
-40 -53 -50 -82 -31 -20 13 -23 19 -14 30 6 8 24 16 38 18 16 2 7 5 -20 6 -63
1 -60 31 2 31 10 0 22 5 26 12 5 8 -4 9 -34 4 l-42 -6 0 35 c0 33 2 35 33 34
17 0 48 -5 67 -12 28 -10 37 -20 46 -52 12 -39 12 -39 13 -9 1 49 -25 73 -97
87 l-63 12 3 105 c3 100 4 105 26 108 30 4 28 20 -3 28 -24 6 -25 9 -25 85 l0
79 260 0 260 0 0 -275 0 -275 -27 -30 c-22 -24 -39 -32 -80 -37 -122 -14 -36
-23 217 -23 173 0 270 4 270 10 0 6 -14 10 -30 10 -42 0 -94 23 -114 51 -14
21 -16 70 -16 430 0 317 3 408 13 412 10 4 10 6 0 6 -8 1 -13 15 -13 36 0 29
4 35 21 35 18 0 19 2 9 15 -7 8 -16 13 -19 10 -4 -2 -8 2 -8 9 0 11 5 12 21 3
12 -7 25 -18 29 -24 18 -29 58 -13 119 46 57 54 61 61 51 83 -8 18 -8 36 0 66
10 38 9 44 -13 67 -15 16 -30 23 -42 19 -13 -4 -18 0 -18 13 0 51 -64 58 -121
12 -28 -22 -39 -26 -39 -15 0 8 4 17 9 21 6 3 18 33 28 66 13 43 24 64 39 69
30 12 33 36 15 112 -18 76 -33 86 -72 48z m-1016 -1632 c-9 -10 -12 -18 -8
-18 5 0 18 8 29 18 12 9 0 -6 -27 -35 -26 -29 -47 -60 -47 -69 0 -11 10 -3 29
22 15 21 38 48 51 59 l23 20 -12 -22 c-26 -50 8 -62 38 -12 18 30 18 30 25 7
12 -45 6 -57 -36 -81 -55 -31 -96 -41 -113 -27 -14 12 -31 91 -26 120 5 36 11
40 50 38 37 -3 39 -4 24 -20z m244 -44 c39 -70 44 -56 7 19 l-25 52 31 -33
c36 -39 50 -38 19 1 -16 22 -18 27 -5 27 8 0 19 -8 24 -17 12 -24 24 -146 16
-167 -8 -22 -49 -20 -99 4 -55 27 -83 58 -91 100 l-5 35 19 -40 c10 -22 26
-46 35 -54 23 -18 21 -6 -2 27 -11 15 -22 38 -25 52 -5 17 0 13 14 -13 12 -22
24 -37 27 -34 2 3 -1 15 -7 27 -8 15 -8 20 -1 16 6 -4 11 -2 11 5 0 7 18 -16
41 -51 56 -87 61 -68 5 24 -49 81 -53 90 -34 84 6 -2 27 -31 45 -64z"/>
<path d="M1470 1850 c0 -5 6 -10 14 -10 18 0 26 -31 26 -107 0 -70 -6 -93 -26
-93 -8 0 -14 -4 -14 -10 0 -5 25 -10 55 -10 30 0 55 5 55 10 0 6 -7 10 -15 10
-11 0 -15 12 -15 45 l0 45 55 0 55 0 0 -45 c0 -33 -4 -45 -15 -45 -8 0 -15 -4
-15 -10 0 -5 25 -10 55 -10 54 0 74 13 35 23 -18 5 -20 14 -20 90 0 63 4 90
15 101 23 23 19 26 -35 26 -48 0 -66 -12 -35 -24 10 -3 15 -19 15 -46 l0 -40
-55 0 -55 0 0 45 c0 33 4 45 15 45 8 0 15 5 15 10 0 6 -25 10 -55 10 -30 0
-55 -4 -55 -10z"/>
<path d="M1938 1843 c-58 -37 -74 -117 -35 -174 46 -69 142 -76 204 -14 29 29
33 40 33 84 0 42 -5 56 -29 83 -24 27 -36 32 -87 35 -44 3 -66 -1 -86 -14z
m105 -14 c32 -15 48 -44 49 -90 1 -69 -45 -110 -107 -95 -68 17 -72 149 -5
183 31 16 33 16 63 2z"/>
<path d="M2280 1825 c0 -19 5 -35 10 -35 6 0 10 4 10 9 0 18 32 41 56 41 24 0
24 -1 24 -96 0 -87 -2 -96 -20 -101 -41 -11 -18 -23 45 -23 37 0 65 4 65 10 0
6 -9 10 -20 10 -19 0 -20 7 -20 101 l0 100 28 -3 c16 -2 31 -12 37 -25 5 -13
16 -23 24 -23 9 0 11 7 7 23 -3 12 -6 28 -6 35 0 9 -31 12 -120 12 l-120 0 0
-35z"/>
<path d="M2660 1850 c0 -5 7 -10 15 -10 12 0 15 -18 15 -100 0 -82 -3 -100
-15 -100 -8 0 -15 -4 -15 -10 0 -6 40 -10 100 -10 l100 0 0 35 c0 40 -11 45
-25 13 -7 -16 -20 -24 -45 -26 -40 -4 -60 16 -60 60 0 21 5 28 20 28 11 0 23
-7 26 -15 12 -30 24 -14 24 30 0 43 -12 60 -23 31 -3 -7 -15 -16 -26 -19 -19
-5 -21 -1 -21 39 0 44 0 44 35 44 22 0 43 -8 55 -20 27 -27 30 -25 30 10 l0
30 -95 0 c-57 0 -95 -4 -95 -10z"/>
<path d="M3010 1851 c0 -5 7 -11 15 -15 12 -4 15 -25 15 -97 0 -82 -2 -91 -20
-96 -49 -13 -12 -23 84 -23 l104 0 5 28 c8 38 -7 48 -27 17 -15 -22 -23 -26
-59 -23 l-42 3 -3 93 c-2 76 0 93 13 98 31 12 14 24 -35 24 -27 0 -50 -4 -50
-9z"/>
<path d="M3388 1850 c-20 -13 -33 -64 -20 -86 5 -9 31 -28 58 -43 39 -20 49
-31 49 -51 0 -21 -5 -26 -32 -28 -31 -3 -40 3 -68 43 -18 27 -28 14 -20 -28 5
-24 13 -36 23 -36 10 0 29 -3 45 -7 66 -16 126 50 93 101 -9 14 -33 33 -54 44
-53 27 -68 47 -52 66 18 22 38 19 64 -10 31 -33 38 -32 34 8 -3 31 -5 32 -53
35 -27 1 -58 -2 -67 -8z"/>
</g>
</svg>
